<svg xmlns="http://www.w3.org/2000/svg" viewBox="0 0 24 24" fill="none" stroke="#C9BCFF" stroke-width="1.5" stroke-linecap="round" stroke-linejoin="round">
  <path d="M7 6.4A6.8 7.4 0 0 1 17.4 9.6c.35 1.15 1 1.85 1.75 2.4.55.4.45 1-.2 1.25l-1.2.45"/>
  <path d="M17.75 13.7v1.7a2 2 0 0 1-2 2h-2.4"/>
  <path d="M7 6.4a7 7.4 0 0 0-1.4 9.9"/>
  <circle cx="14.5" cy="10.2" r="0.7" fill="#C9BCFF" stroke="none"/>
  <path d="M18.1 11.4c.55.15.85.6.75 1.1"/>
  <path d="M19.6 19.4l1.6-1.5-1.6-1.5"/>
</svg>
